HIERARCHY
ROOT RootJoint
{
    OFFSET   0.000000   0.000000   0.000000
    CHANNELS 6 Xposition Yposition Zposition Xrotation Yrotation Zrotation
    JOINT pelvis_lowerback
    {
        OFFSET   0.000000   0.093605   0.000000
        CHANNELS 3 Xrotation Yrotation Zrotation
        JOINT lowerback_torso
        {
            OFFSET   0.000000   0.100000   0.000000
            CHANNELS 3 Xrotation Yrotation Zrotation
            JOINT torso_head
            {
                OFFSET   0.000000   0.282350   0.000000
                CHANNELS 3 Xrotation Yrotation Zrotation
                End Site
                {
                    OFFSET   0.000000   0.192650   0.000000
                }
            }
            JOINT rTorso_Clavicle
            {
                OFFSET  -0.001000   0.157500   0.000000
                CHANNELS 3 Xrotation Yrotation Zrotation
                JOINT rShoulder
                {
                    OFFSET  -0.117647   0.000000   0.000000
                    CHANNELS 3 Xrotation Yrotation Zrotation
                    JOINT rElbow
                    {
                        OFFSET  -0.245000   0.000000   0.000000
                        CHANNELS 3 Xrotation Yrotation Zrotation
                        JOINT rWrist
                        {
                            OFFSET  -0.240000   0.000000   0.000000
                            CHANNELS 3 Xrotation Yrotation Zrotation
                            End Site
                            {
                                OFFSET  -0.116353  -0.002500   0.000000
                            }
                        }
                    }
                }
            }
            JOINT lTorso_Clavicle
            {
                OFFSET   0.001000   0.157500   0.000000
                CHANNELS 3 Xrotation Yrotation Zrotation
                JOINT lShoulder
                {
                    OFFSET   0.117647   0.000000   0.000000
                    CHANNELS 3 Xrotation Yrotation Zrotation
                    JOINT lElbow
                    {
                        OFFSET   0.245000   0.000000   0.000000
                        CHANNELS 3 Xrotation Yrotation Zrotation
                        JOINT lWrist
                        {
                            OFFSET   0.240000   0.000000   0.000000
                            CHANNELS 3 Xrotation Yrotation Zrotation
                            End Site
                            {
                                OFFSET   0.116353  -0.002500   0.000000
                            }
                        }
                    }
                }
            }
        }
    }
    JOINT rHip
    {
        OFFSET  -0.100000  -0.051395   0.000000
        CHANNELS 3 Xrotation Yrotation Zrotation
        JOINT rKnee
        {
            OFFSET   0.000000  -0.410000   0.000000
            CHANNELS 3 Xrotation Yrotation Zrotation
            JOINT rAnkle
            {
                OFFSET   0.000000  -0.390000   0.000000
                CHANNELS 3 Xrotation Yrotation Zrotation
                JOINT rToeJoint
                {
                    OFFSET   0.000000  -0.050000   0.130000
                    CHANNELS 3 Xrotation Yrotation Zrotation
                    End Site
                    {
                        OFFSET  -0.010000   0.002000   0.060000
                    }
                }
            }
        }
    }
    JOINT lHip
    {
        OFFSET   0.100000  -0.051395   0.000000
        CHANNELS 3 Xrotation Yrotation Zrotation
        JOINT lKnee
        {
            OFFSET   0.000000  -0.410000   0.000000
            CHANNELS 3 Xrotation Yrotation Zrotation
            JOINT lAnkle
            {
                OFFSET   0.000000  -0.390000   0.000000
                CHANNELS 3 Xrotation Yrotation Zrotation
                JOINT lToeJoint
                {
                    OFFSET   0.000000  -0.050000   0.130000
                    CHANNELS 3 Xrotation Yrotation Zrotation
                    End Site
                    {
                        OFFSET   0.010000   0.002000   0.060000
                    }
                }
            }
        }
    }
}
MOTION
Frames: 11
Frame Time:   0.008333
 -2.376719   0.925631   3.975860   0.000000   0.000000   0.000000   0.000000   0.000000   0.000000   0.000000   0.000000   0.000000   0.000000   0.000000   0.000000   0.000000   0.000000   0.000000   0.000000   0.000000   0.000000   0.000000   0.000000   0.000000   0.000000   0.000000   0.000000   0.000000   0.000000   0.000000   0.000000   0.000000   0.000000   0.000000   0.000000   0.000000   0.000000   0.000000   0.000000   0.000000   0.000000   0.000000   0.000000   0.000000   0.000000   0.000000   0.000000   0.000000   0.000000   0.000000   0.000000   0.000000   0.000000   0.000000   0.000000   0.000000   0.000000   0.000000   0.000000   0.000000   0.000000   0.000000   0.000000
 -2.377003   0.925816   3.972978   1.246312   0.152338  -0.244271  -0.696202  -0.122882   0.142007  -0.171998  -0.093188   0.153411  -0.497031   0.056636   0.064518   0.219168  -0.736919  -0.384164   0.736479  -0.292137   2.436198   0.058371   3.124057  -0.037371   0.077141  -0.676587  -2.217760   0.295192   0.705147   0.058160   1.359574   0.484222  -2.201411   0.060637  -3.240152   0.058571   0.059378   0.635138   2.303029  -2.543672  -0.235723   0.171383   2.579671   0.001427  -0.001686  -1.231495  -0.302857  -0.088543  -0.060701  -0.000082   0.000199  -2.790175   0.042684   0.458556   3.422084  -0.006355   0.006455  -1.967196   0.141716   0.032749   0.167746  -0.000373   0.000509
 -2.377430   0.926083   3.969808   2.346140   0.267634  -0.520486  -1.179679  -0.239382   0.278814  -0.212324  -0.185702   0.317317  -0.943642   0.109677   0.146911   0.431563  -1.456565  -0.191995   1.466888  -0.518332   5.328279   0.132941   6.121192  -0.069912   0.211786  -0.557190  -3.822918   0.591478   1.394805  -0.487974   2.648966   0.866833  -4.745887   0.138834  -6.341734   0.106116   0.197845   0.485818   3.991247  -5.018130  -0.463280   0.263369   5.175654   0.004629  -0.003513  -2.371184  -0.588677  -0.178432  -0.125524  -0.000209   0.000368  -5.451295   0.066031   1.090587   6.906135  -0.015335   0.012170  -3.788065   0.281658   0.071852   0.322871  -0.000843   0.000859
 -2.377944   0.926114   3.966611   3.353394   0.355112  -0.784536  -1.552286  -0.352493   0.388770  -0.171270  -0.274943   0.457083  -1.338971   0.158312   0.228716   0.635825  -2.103531   0.384112   2.193494  -0.682850   8.517545   0.206182   8.928130  -0.094611   0.356551  -0.255946  -4.781574   0.879330   2.008922  -1.422082   3.863978   1.145274  -7.442019   0.215052  -9.246017   0.140718   0.345672   0.153619   4.992823  -7.382729  -0.672182   0.244184   7.599192   0.008678  -0.005199  -3.434751  -0.855204  -0.268766  -0.187856  -0.000352   0.000486  -7.931027   0.053074   1.816334  10.187961  -0.024508   0.016920  -5.484794   0.413696   0.114349   0.471305  -0.001335   0.001091
 -2.378499   0.925684   3.963498   4.295204   0.424267  -1.030900  -1.849492  -0.465262   0.476100  -0.089704  -0.364212   0.577846  -1.695938   0.203075   0.302202   0.835785  -2.682818   1.233354   2.895184  -0.782281  11.804216   0.268655  11.551486  -0.111384   0.497106   0.084423  -5.195443   1.159569   2.548519  -2.598320   5.009065   1.323804 -10.185742   0.280315 -11.962717   0.164356   0.489290  -0.230979   5.462237  -9.642807  -0.858689   0.124037   9.842062   0.012889  -0.006685  -4.429331  -1.103595  -0.358818  -0.253417  -0.000518   0.000580 -10.243648   0.003352   2.603457  13.250910  -0.032788   0.021062  -7.069383   0.537330   0.158989   0.599936  -0.001733   0.001208
 -2.379054   0.924622   3.960544   5.182144   0.478591  -1.260298  -2.092832  -0.578658   0.548939   0.011441  -0.455130   0.687997  -2.020875   0.244417   0.366939   1.032981  -3.207003   2.263369   3.557680  -0.824160  15.046774   0.316182  14.001126  -0.121039   0.627502   0.423661  -5.198080   1.431566   3.024801  -3.915293   6.086325   1.415327 -12.907582   0.330919 -14.502936   0.179008   0.624400  -0.632058   5.550713 -11.798558  -1.020460  -0.081287  11.917706   0.016837  -0.008001  -5.359487  -1.334911  -0.447860  -0.320911  -0.000692   0.000649 -12.398008  -0.080918   3.430803  16.108234  -0.039662   0.024658  -8.549594   0.652666   0.204938   0.710046  -0.002012   0.001244
 -2.379591   0.922808   3.957797   6.019287   0.519154  -1.472938  -2.297901  -0.692403   0.611958   0.120079  -0.547579   0.789411  -2.317816   0.282623   0.425598   1.227377  -3.688574   3.387323   4.181632  -0.822113  18.190878   0.348312  16.286867  -0.124829   0.745631   0.743996  -4.930756   1.694651   3.450958  -5.298763   7.097259   1.436100 -15.559542   0.366234 -16.876877   0.186405   0.749072  -1.031957   5.380159 -13.849353  -1.156453  -0.356297  13.841149   0.020251  -0.009175  -6.229202  -1.550213  -0.535306  -0.388362  -0.000858   0.000695 -14.400865  -0.196301   4.281787  18.775969  -0.044974   0.027662  -9.932138   0.759923   0.251523   0.804961  -0.002185   0.001225
 -2.379943   0.919636   3.955316   6.471876   0.499240  -1.646933  -2.015244  -0.737704   0.673445   0.183877  -0.555331   0.903638  -2.729320   0.229262   0.450750   1.433577  -4.303762   3.952341   4.964584  -0.625040  21.112721   0.363427  18.624534  -0.132356   0.819122   1.016338  -3.805375   1.896407   3.990000  -6.094829   8.121074   1.262818 -18.240878   0.403529 -19.741678   0.200148   0.818914  -1.328372   4.476680 -15.546446  -1.452768  -0.668875  16.081121   0.022988  -0.015497  -7.038731  -1.988017  -0.496625  -0.528920  -0.001161   0.001491 -15.902224  -0.299064   5.059006  21.309877  -0.047441   0.029068 -11.568365   0.936774   0.218432   0.882910  -0.002130   0.001188
 -2.380213   0.915329   3.953114   6.862214   0.481075  -1.802652  -1.741144  -0.775543   0.738777   0.272080  -0.557071   1.004868  -3.104850   0.178267   0.478451   1.626383  -4.892624   4.284588   5.682465  -0.420173  23.706295   0.360096  20.814743  -0.133256   0.900086   1.343889  -2.775532   2.084756   4.502659  -6.688734   9.063938   1.059566 -20.646375   0.417183 -22.441964   0.204524   0.905937  -1.823559   3.622633 -17.104663  -1.734700  -0.985895  18.244624   0.024167  -0.020359  -7.787937  -2.401906  -0.467423  -0.636711  -0.001283   0.001884 -17.270769  -0.411600   5.780035  23.693827  -0.047784   0.030048 -13.098174   1.101729   0.192138   0.934417  -0.001943   0.001084
 -2.380443   0.910005   3.951157   7.221467   0.465431  -1.943498  -1.490132  -0.810559   0.799980   0.358127  -0.558900   1.092558  -3.452810   0.130770   0.507364   1.804795  -5.459462   4.466397   6.340781  -0.221279  26.032656   0.345223  22.856962  -0.129257   0.975173   1.656905  -1.955433   2.262387   4.995680  -7.141763   9.933970   0.854256 -22.816636   0.414320 -24.961880   0.201752   0.988415  -2.328255   2.930760 -18.545701  -1.989753  -1.295399  20.278324   0.024059  -0.023469  -8.486147  -2.788557  -0.445776  -0.730413  -0.001319   0.002071 -18.542958  -0.531414   6.451780  25.921816  -0.046622   0.030530 -14.525769   1.255353   0.171721   0.982963  -0.001767   0.000990
 -2.380653   0.903744   3.949410   7.555662   0.449672  -2.071033  -1.260636  -0.842576   0.853604   0.438500  -0.560303   1.167230  -3.777845   0.086305   0.535533   1.971517  -6.006660   4.546074   6.947138  -0.032669  28.137204   0.323612  24.759069  -0.122158   1.043216   1.936283  -1.309721   2.432050   5.473349  -7.491474  10.739220   0.654924 -24.787868   0.400640 -27.309481   0.194201   1.062065  -2.793387   2.378418 -19.880961  -2.220130  -1.591212  22.181119   0.023040  -0.025184  -9.137765  -3.149363  -0.430402  -0.814833  -0.001302   0.002133 -19.729900  -0.656369   7.077505  28.000264  -0.044459   0.030457 -15.858253   1.398400   0.156346   1.028136  -0.001601   0.000900
